<?xml version="1.0" encoding="utf-8"?>
<!-- Generator: Adobe Illustrator 18.1.1, SVG Export Plug-In . SVG Version: 6.00 Build 0)  -->
<svg version="1.1" id="Layer_1" xmlns="http://www.w3.org/2000/svg" xmlns:xlink="http://www.w3.org/1999/xlink" x="0px" y="0px"
	 viewBox="0 0 1536 2048" enable-background="new 0 0 1536 2048" xml:space="preserve">
<rect display="none" fill="#333232" width="1536" height="2048"/>
<g>
	
		<text transform="matrix(1 0 0 1 600.9791 1060.3015)" fill="none" stroke="#F0EEEA" stroke-width="2" stroke-miterlimit="10" font-family="'MoiraiOne-Regular'" font-size="108">Wisards</text>
	<g>
		<g>
			<defs>
				<rect id="SVGID_1_" x="458.6" y="950.7" width="130.6" height="130.6"/>
			</defs>
			<clipPath id="SVGID_2_">
				<use xlink:href="#SVGID_1_"  overflow="visible"/>
			</clipPath>
			
				<path clip-path="url(#SVGID_2_)" fill="none" stroke="#F0EEEA" stroke-width="3" stroke-linecap="round" stroke-linejoin="round" d="
				M524,970.5c25.1,0,45.4,20.4,45.4,45.4s-20.4,45.4-45.4,45.4c-25.1,0-45.4-20.4-45.4-45.4S498.9,970.5,524,970.5 M524,953.5
				c-34.5,0-62.5,28-62.5,62.5s28,62.5,62.5,62.5c34.5,0,62.5-28,62.5-62.5S558.5,953.5,524,953.5L524,953.5z M547.3,995.2
				c-4.5-5-10.5-8.6-17.4-9.9 M553.6,1025.9c1-3.1,1.6-6.5,1.6-9.9c0-3.7-0.6-7.3-1.8-10.6 M529.9,1046.7c6.9-1.3,12.9-4.9,17.4-9.9
				 M500.4,1036.5c4.5,5.1,10.6,8.8,17.6,10.1 M494.5,1005.7c-1.1,3.2-1.7,6.7-1.7,10.3c0,3.5,0.6,6.8,1.6,9.9 M518.1,985.3
				c-6.6,1.3-12.5,4.6-17,9.4 M559.9,988.4l-23,12.5c-1.9-1.6-4-2.8-6.4-3.7l-1.3-25.9 M565.1,1034.4l-21.6-14.6
				c0.2-1.3,0.4-2.6,0.4-3.9c0-1.3-0.1-2.6-0.4-3.9l21.3-14.2 M529.2,1060.5l1.3-25.7c2.4-0.8,4.5-2.1,6.4-3.7l22.7,12.5
				 M488.6,1043l22.3-12c1.9,1.7,4.2,3,6.7,3.9l1.2,25.7 M483.1,998.1l21.3,14.2c-0.2,1.2-0.4,2.4-0.4,3.7s0.1,2.5,0.4,3.7
				l-21.3,14.2 M518.7,971.4l-1.2,25.8c-2.5,0.8-4.7,2.2-6.7,3.9l-22.2-12 M524,1007.5c-4.7,0-8.5,3.8-8.5,8.5
				c0,4.7,3.8,8.5,8.5,8.5c4.7,0,8.5-3.8,8.5-8.5C532.5,1011.3,528.7,1007.5,524,1007.5L524,1007.5z"/>
		</g>
	</g>
</g>
</svg>
