<?xml version="1.0" encoding="utf-8"?>
<!-- Generator: Adobe Illustrator 18.1.1, SVG Export Plug-In . SVG Version: 6.00 Build 0)  -->
<svg version="1.1" id="Layer_1" xmlns="http://www.w3.org/2000/svg" xmlns:xlink="http://www.w3.org/1999/xlink" x="0px" y="0px"
	 viewBox="0 0 1536 2048" enable-background="new 0 0 1536 2048" xml:space="preserve">
<g>
	<g>
		<defs>
			<rect id="SVGID_1_" x="523.4" y="935.8" width="130.6" height="130.6"/>
		</defs>
		<clipPath id="SVGID_2_">
			<use xlink:href="#SVGID_1_"  overflow="visible"/>
		</clipPath>
		
			<path clip-path="url(#SVGID_2_)" fill="none" stroke="#F0EEEA" stroke-width="2" stroke-linecap="round" stroke-linejoin="round" d="
			M588.7,955.6c25.1,0,45.4,20.4,45.4,45.4s-20.4,45.4-45.4,45.4c-25.1,0-45.4-20.4-45.4-45.4S563.7,955.6,588.7,955.6 M588.7,938.6
			c-34.5,0-62.5,28-62.5,62.5s28,62.5,62.5,62.5c34.5,0,62.5-28,62.5-62.5S623.3,938.6,588.7,938.6L588.7,938.6z M612.1,980.3
			c-4.5-5-10.5-8.6-17.4-9.9 M618.4,1011c1-3.1,1.6-6.5,1.6-9.9c0-3.7-0.6-7.3-1.8-10.6 M594.7,1031.8c6.9-1.3,12.9-4.9,17.4-9.9
			 M565.2,1021.7c4.5,5.1,10.6,8.8,17.6,10.1 M559.2,990.8c-1.1,3.2-1.7,6.7-1.7,10.3c0,3.5,0.6,6.8,1.6,9.9 M582.9,970.4
			c-6.6,1.3-12.5,4.6-17,9.4 M624.6,973.5l-23,12.5c-1.9-1.6-4-2.8-6.4-3.7l-1.3-25.9 M629.9,1019.6l-21.6-14.6
			c0.2-1.3,0.4-2.6,0.4-3.9c0-1.3-0.1-2.6-0.4-3.9l21.3-14.2 M594,1045.6l1.3-25.7c2.4-0.8,4.5-2.1,6.4-3.7l22.7,12.5 M553.4,1028.1
			l22.3-12c1.9,1.7,4.2,3,6.7,3.9l1.2,25.7 M547.9,983.2l21.3,14.2c-0.2,1.2-0.4,2.4-0.4,3.7c0,1.3,0.1,2.5,0.4,3.7l-21.3,14.2
			 M583.5,956.5l-1.2,25.8c-2.5,0.8-4.7,2.2-6.7,3.9l-22.2-12 M588.7,992.6c-4.7,0-8.5,3.8-8.5,8.5c0,4.7,3.8,8.5,8.5,8.5
			c4.7,0,8.5-3.8,8.5-8.5C597.3,996.4,593.5,992.6,588.7,992.6L588.7,992.6z"/>
	</g>
</g>
</svg>
