<svg xmlns="http://www.w3.org/2000/svg" xmlns:xlink="http://www.w3.org/1999/xlink" viewBox="0 0 48 48" fill="#041F1E">
  <path d="M8.5 8C6.0324991 8 4 10.032499 4 12.5L4 35.5C4 37.967501 6.0324991 40 8.5 40L39.5 40C41.967501 40 44 37.967501 44 35.5L44 17.5C44 15.032499 41.967501 13 39.5 13L24.042969 13L19.574219 9.2753906 A 1.50015 1.50015 0 0 0 19.572266 9.2753906C18.584102 8.4521105 17.339162 8 16.052734 8L8.5 8 z M 8.5 11L16.052734 11C16.638307 11 17.202555 11.205358 17.652344 11.580078L22.539062 15.652344 A 1.50015 1.50015 0 0 0 23.5 16L39.5 16C40.346499 16 41 16.653501 41 17.5L41 35.5C41 36.346499 40.346499 37 39.5 37L8.5 37C7.6535009 37 7 36.346499 7 35.5L7 12.5C7 11.653501 7.6535009 11 8.5 11 z M 23 18C19.151772 18 16 21.151775 16 25C16 28.848225 19.151772 32 23 32C24.384504 32 25.675761 31.588304 26.765625 30.886719L30.439453 34.560547 A 1.50015 1.50015 0 1 0 32.560547 32.439453L28.886719 28.765625C29.588304 27.675761 30 26.384503 30 25C30 21.151775 26.848228 18 23 18 z M 23 21C25.226909 21 27 22.773093 27 25C27 27.226907 25.226909 29 23 29C20.773091 29 19 27.226907 19 25C19 22.773093 20.773091 21 23 21 z" fill="#041F1E" />
</svg>