<svg id="head" xmlns="http://www.w3.org/2000/svg" viewBox="0 0 97.29 46.27"><defs><style>.cls-1{fill:#f44f59;}</style></defs><title>logo</title><path class="cls-1" d="M158.06,25.77a1.56,1.56,0,0,1-.31-1.05,1.68,1.68,0,0,1,.17-0.83,4,4,0,0,1,3-1.14q2.63-.18,2.63,2.15a6,6,0,0,1-.22,1.36,6,6,0,0,0-.22,1.32,1.69,1.69,0,0,0,.79,1.49,2.27,2.27,0,0,0,1.45.48,3.74,3.74,0,0,0,3.42-1.89,14.06,14.06,0,0,0,.83-2.41,3.64,3.64,0,0,1,1-2,1.72,1.72,0,0,1,.92-0.22,1,1,0,0,1,.75.22,1.63,1.63,0,0,1,.13,1.36,1.93,1.93,0,0,0-.66.4,2.71,2.71,0,0,0-.57,1.05q-0.53,1.36-.57,1.45a8.41,8.41,0,0,1-2,2.85,5.41,5.41,0,0,1-3.78,1.14,4.48,4.48,0,0,1-2.77-.92,2.62,2.62,0,0,1-.92-2.5q0.22-.83.48-2.28a1,1,0,0,0-1.05-1.27A3.65,3.65,0,0,0,158.06,25.77Z" transform="translate(-157.36 -1.36)"/><path class="cls-1" d="M171.76,25.11a60.31,60.31,0,0,1-.53,6.23L170.53,37q-0.79,7.42-2.63,8.12a8.69,8.69,0,0,1-3.07.53,15.19,15.19,0,0,1-4-.57,8.94,8.94,0,0,1-3.51-1.62,1.76,1.76,0,0,1,.83-1.14,25.46,25.46,0,0,0,3.64,1.19,12.74,12.74,0,0,0,2.72.31,3.9,3.9,0,0,0,2.72-.7,2.9,2.9,0,0,0,.75-1.62q0.48-4.43.7-7.6,0-.13.31-3.56a28.76,28.76,0,0,1,.48-3.6,32.41,32.41,0,0,1,2.06-3.07A3.45,3.45,0,0,1,171.76,25.11Z" transform="translate(-157.36 -1.36)"/><path class="cls-1" d="M174.52,24.71c0.15-.53.25-0.86,0.31-1a1.33,1.33,0,0,1,.88-0.53,7.29,7.29,0,0,1,1.58-.18q2.59,0,2.59,1.49t-2.28,2.33a14.68,14.68,0,0,1-1.71.57,1.08,1.08,0,0,1,.35.92,5.59,5.59,0,0,1,0,.59,5,5,0,0,0,0,.5,0.37,0.37,0,0,0,.44.44q0.79-.09,1.84-1.8a4,4,0,0,1,1.32-1.32,1.22,1.22,0,0,1,.75-0.26,1.36,1.36,0,0,1,1.05.61,7.65,7.65,0,0,1,.79,1.58q0.22,0.57.39,1.19a1.44,1.44,0,0,0,.48.66q1-.35,1.27-2.46Q185,25,185,24.93q1-2.81,3-2.55a0.6,0.6,0,0,1,.53.48l0.26,0.88a3.55,3.55,0,0,0-1.1,1,5.93,5.93,0,0,0-1,2.15q-0.35,1.23-.66,2.41a3.44,3.44,0,0,1-1.76,2.2,3,3,0,0,1-1.41.13,1.72,1.72,0,0,1-1.23-.48,7.11,7.11,0,0,1-.88-1.67,1.85,1.85,0,0,0-.66-1.05q-1.23,1.47-1.8,2a3.78,3.78,0,0,1-2.72,1.16,1.45,1.45,0,0,1-1.49-.71,3.25,3.25,0,0,1-.09-1.46c0-.53,0-0.84,0-0.93a0.48,0.48,0,0,0-.48-0.53,1.11,1.11,0,0,1-.9-0.24,0.75,0.75,0,0,1-.11-0.82,1.75,1.75,0,0,1,.44-0.8,6.3,6.3,0,0,0,2.11-.13,3.23,3.23,0,0,0,2.11-.84,0.54,0.54,0,0,0,.13-0.31q0-.4-0.92-0.4A9.42,9.42,0,0,0,174.52,24.71Z" transform="translate(-157.36 -1.36)"/><path class="cls-1" d="M190,1.84s-0.32,2.72-1,8.08q-1.58,13.17-1.36,14.93a0.12,0.12,0,0,1-.13.13,1.53,1.53,0,0,1-.75-0.26,0.92,0.92,0,0,1-.48-0.48,33.57,33.57,0,0,1,.18-5.55q0.35-4.76,1.14-11.57,0.31-2.81.7-5.36a2.4,2.4,0,0,0,1-.4A0.86,0.86,0,0,1,190,1.84Z" transform="translate(-157.36 -1.36)"/><path class="cls-1" d="M189,25.63q-0.53.13-.66-0.53a3.85,3.85,0,0,1,2.42-1.89,3.29,3.29,0,0,1,3.07.48,7.44,7.44,0,0,1,3.34-.66q3.47,0,4.57,2.32a6.64,6.64,0,0,1,.48,4,15.68,15.68,0,0,1-.44,2.05,0.42,0.42,0,0,1-.44.22,1.67,1.67,0,0,1-1.23-.48q-0.09-1.31-.53-3.88a3.33,3.33,0,0,0-2.11-2.62,3.19,3.19,0,0,0-2.5,0,2.94,2.94,0,0,1,1.19,2.25,4.06,4.06,0,0,1-1.38,3.49A5.09,5.09,0,0,1,191,31.6a2.41,2.41,0,0,1-1.73-.77A2.17,2.17,0,0,1,188.7,29a5.4,5.4,0,0,1,1.93-3,12.58,12.58,0,0,1,1.49-1.24,1.93,1.93,0,0,0-1.27-.09A5.19,5.19,0,0,0,189,25.63Zm4.13-.13a7.52,7.52,0,0,0-1.36,1.14,2.68,2.68,0,0,0-1,2.46A1.34,1.34,0,0,0,192,30.24a1.74,1.74,0,0,0,1.6-.72,2.88,2.88,0,0,0,.64-1.82A2.42,2.42,0,0,0,193.14,25.5Z" transform="translate(-157.36 -1.36)"/><path class="cls-1" d="M204.11,24.84a0.61,0.61,0,0,1-.31-0.53,0.67,0.67,0,0,1,.18-0.66,2.91,2.91,0,0,0,.86-0.26,5.8,5.8,0,0,1,1-.33,4.23,4.23,0,0,1,.81-0.07,3.56,3.56,0,0,1,2.33.66,6.65,6.65,0,0,1,3.64-.66q2.85,0.09,3.56,2.31a9.74,9.74,0,0,1,.18,4.21,16,16,0,0,1-.26,1.86,0.42,0.42,0,0,1-.44.22,1.49,1.49,0,0,1-1.1-.44,20.69,20.69,0,0,1-.39-3.56,3.12,3.12,0,0,0-1.45-2.81,3.41,3.41,0,0,0-2.11-.09,3.67,3.67,0,0,1,1.23,3.07,4.6,4.6,0,0,1-.66,2.52,2.18,2.18,0,0,1-1.67,1.12q-2.06.18-2.55-1.45a1.63,1.63,0,0,1-1.76,1.45,1.68,1.68,0,0,1-.79-0.29l-0.57-.33a1,1,0,0,1-.75,0,1,1,0,0,1-.26-1.23,11.72,11.72,0,0,1,2.28-3.07,14.22,14.22,0,0,1,2.06-1.89,1.64,1.64,0,0,0-1,0l-0.62.2a2.94,2.94,0,0,1-.88.2A1.18,1.18,0,0,1,204.11,24.84Zm4.43,0.61a11.38,11.38,0,0,0-1.8,1.41,12.41,12.41,0,0,0-2,2.37,0.67,0.67,0,0,1,.35.33,0.94,0.94,0,0,0,.31.35,0.52,0.52,0,0,0,.22.07,0.83,0.83,0,0,0,.29-0.72,1.21,1.21,0,0,1,.5-0.94,1.1,1.1,0,0,1,1.23,0,2.48,2.48,0,0,1,.57.88,1.26,1.26,0,0,0,.88.83q0.7,0,.88-1.93a3.19,3.19,0,0,0-.37-1.54A2.17,2.17,0,0,0,208.55,25.46Z" transform="translate(-157.36 -1.36)"/><path class="cls-1" d="M216.45,27.52a1.62,1.62,0,0,1-.61-1.45,6,6,0,0,1,2.28-2,3.83,3.83,0,0,1,2.24-.53q2.68,0.4,2.37,4a8.29,8.29,0,0,1-2.55,4.74,6.75,6.75,0,0,1-2.46,1.8,1,1,0,0,1-.35.09c-0.32,0-.4-0.32-0.22-1q1-.88,1.27-1.14A9.85,9.85,0,0,0,220,29.67a5.12,5.12,0,0,0,.48-2.15q0-1.89-1.32-1.89A3,3,0,0,0,216.45,27.52Z" transform="translate(-157.36 -1.36)"/><path class="cls-1" d="M233.44,28.58a0.84,0.84,0,0,0,.61,1,1.71,1.71,0,0,0,1.8-.92,3.77,3.77,0,0,0,.62-2.06q0-2.37-2.94-2.37a8.67,8.67,0,0,0-6.45,3.12,13.1,13.1,0,0,0-3.34,6.54,17,17,0,0,0-.35,3.34q0,5.27,3.6,7.64a8.76,8.76,0,0,0,5,1.32,9.79,9.79,0,0,0,6.76-2.2,9.3,9.3,0,0,0,3.16-7.29,5.8,5.8,0,0,0-.18-1.49,1.5,1.5,0,0,1,1.36-1.23,1.28,1.28,0,0,1,.48.09,5,5,0,0,1,.26,1.76A10.85,10.85,0,0,1,242,42a12.39,12.39,0,0,1-10.89,5.62,11.48,11.48,0,0,1-4-.7,8.15,8.15,0,0,1-4.7-4.13,12.15,12.15,0,0,1-1.05-6,15.15,15.15,0,0,1,3.69-9.48,11.67,11.67,0,0,1,7-4,9.42,9.42,0,0,1,1.76-.18q4.21,0,4.21,3.42a7.32,7.32,0,0,1-.18,1.49,4.12,4.12,0,0,1-1.62,2.37,4.37,4.37,0,0,1-2.68,1q-2.11,0-2.11-1.93a3.85,3.85,0,0,1,.7-2.33,1.1,1.1,0,0,1,1-.48,2.36,2.36,0,0,1,.75.13A4.52,4.52,0,0,0,233.44,28.58Z" transform="translate(-157.36 -1.36)"/><path class="cls-1" d="M239.37,23.13a2.3,2.3,0,0,1,1.1-.31,1.25,1.25,0,0,1,.75.22,4.86,4.86,0,0,1,.35,2.46,23,23,0,0,1-.79,5,4.25,4.25,0,0,0,1.84-1.62q0.26-.4,1.27-2.42a11.77,11.77,0,0,1,.7-1.67,0.4,0.4,0,0,1,.35-0.13,2.35,2.35,0,0,1,1.51.66,3.93,3.93,0,0,1,1.14,2q0.37,1.3.9,3.23,1-.35,1.36-2.46,0.26-1.58.57-3.16A4.72,4.72,0,0,1,251.64,23a2.32,2.32,0,0,1,1.56-.7,2.51,2.51,0,0,1,.48,0,2,2,0,0,1,1,1.4,4.77,4.77,0,0,0-1.32,1.05A7,7,0,0,0,252.18,27q-0.39,1.14-.79,2.33a3.44,3.44,0,0,1-1.76,2.2,3.55,3.55,0,0,1-1.58.13,2,2,0,0,1-1.41-.48,5.42,5.42,0,0,1-.75-2.11,3.54,3.54,0,0,0-.79-1.93,13.67,13.67,0,0,1-1.93,3.19,3.27,3.27,0,0,1-2.59,1.33,2,2,0,0,1-1.76-.53,1.63,1.63,0,0,1-.22-0.88A12.27,12.27,0,0,1,239,28a16.12,16.12,0,0,0,.4-2.43Q239.41,23.53,239.37,23.13Z" transform="translate(-157.36 -1.36)"/></svg>