<svg id="head" xmlns="http://www.w3.org/2000/svg" viewBox="0 0 26.33 26.33"><defs><style>.cls-1{fill:#faaaaf;}.cls-2{fill:#ececec;}</style></defs><title>menu</title><circle class="cls-1" cx="13.17" cy="13.17" r="13.17"/><g id="menu"><path class="cls-2" d="M26.34,18.3a1,1,0,0,0-1,1v2a1,1,0,0,0,1,1h2a1,1,0,0,0,1-1v-2a1,1,0,0,0-1-1h-2Zm0.34,1.35H28V21H26.68V19.65Zm4.38,0A0.67,0.67,0,0,0,31,21h6.42a0.67,0.67,0,1,0,0-1.35H31.06ZM26.34,23a1,1,0,0,0-1,1v2a1,1,0,0,0,1,1h2a1,1,0,0,0,1-1V24a1,1,0,0,0-1-1h-2Zm0.34,1.35H28v1.35H26.68V24.37Zm4.38,0a0.67,0.67,0,0,0,0,1.35h6.42a0.67,0.67,0,1,0,0-1.35H31.06Zm-4.72,3.37a1,1,0,0,0-1,1v2a1,1,0,0,0,1,1h2a1,1,0,0,0,1-1v-2a1,1,0,0,0-1-1h-2Zm0.34,1.35H28v1.35H26.68V29.09Zm4.38,0a0.67,0.67,0,0,0,0,1.35h6.42a0.67,0.67,0,1,0,0-1.35H31.06Z" transform="translate(-18.57 -12.42)"/></g></svg>