<svg id="head" xmlns="http://www.w3.org/2000/svg" viewBox="0 0 26.33 26.33"><defs><style>.cls-1{fill:#faaaaf;}.cls-2{fill:#ececec;}</style></defs><title>search</title><circle class="cls-1" cx="13.17" cy="13.17" r="13.17"/><g id="search"><path class="cls-2" d="M379.53,16.65A6.27,6.27,0,1,0,384,18.48,6.24,6.24,0,0,0,379.53,16.65Zm0,1a5.2,5.2,0,0,1,3.73,1.55A5.26,5.26,0,1,1,379.52,17.62Zm0,1a4.19,4.19,0,0,0-3,1.27,4.28,4.28,0,0,0-1.25,2.87,0.49,0.49,0,0,0,.48.51h0a0.5,0.5,0,0,0,.49-0.48,3.35,3.35,0,0,1,1-2.21,3.27,3.27,0,0,1,2.33-1A0.49,0.49,0,0,0,379.52,18.61Zm-2.85,6.22a0.49,0.49,0,1,0,.49.49A0.49,0.49,0,0,0,376.67,24.83Zm8,2.72a0.46,0.46,0,0,0-.34.15,0.48,0.48,0,0,0,0,.69l0.41,0.41a1.42,1.42,0,0,0-.15.64A1.48,1.48,0,0,0,385,30.5l2.11,2.08a1.49,1.49,0,0,0,1.06.45,1.54,1.54,0,0,0,1.06-.43,1.48,1.48,0,0,0,0-2.09l-2.11-2.11a1.48,1.48,0,0,0-1.06-.43,1.42,1.42,0,0,0-.64.15L385,27.7A0.5,0.5,0,0,0,384.64,27.55Zm1.41,1.39a0.45,0.45,0,0,1,.35.15l2.09,2.09a0.49,0.49,0,1,1-.69.69l-2.09-2.08a0.51,0.51,0,0,1-.15-0.36,0.45,0.45,0,0,1,.15-0.35A0.47,0.47,0,0,1,386.05,28.94Z" transform="translate(-369.17 -12.42)"/></g></svg>